<svg xmlns="http://www.w3.org/2000/svg" viewBox="0 0 128 128" class="h-[100px] w-[100px] lg:h-[70px] lg:w-[70px] text-[13px] items-center flex font-bold mx-5 transition-transform duration-300 transform hover:scale-125 hover:rotate-6" alt="HTML5 Logo" style="top:-1px">
  
  <!-- Outer shield -->
  <path fill="#E44D26" d="M19.2 0l9.7 110.5L64 128l35.1-17.5L109.9 0H19.2z"></path>
  <path fill="#F16529" d="M64 117.2l28.3-13.5 8.3-93.3H64v106.8z"></path>

  <!-- HTML5 white elements -->
  <path fill="#EBEBEB" d="M64 66.6H44l1.1 12.4H64v-12.4zm0-23.3H40l1 11.1H64V43.3z"></path>
  <path fill="#fff" d="M64 23.3V34H86l-2.3 25H64v12.4h21.9l-2.1 23.5-19.8 8.9-19.7-8.9-1.3-14.6h12.7l.6 6.5 7.7 3.3 7.7-3.3.8-8.7H43l-1.9-21.5H64V23.3z"></path>
</svg>
